<?xml version="1.0" encoding="UTF-8"?><svg id="Layer_2" xmlns="http://www.w3.org/2000/svg" viewBox="0 0 65.5 65.5"><g id="_1"><g><path d="M65.5,6.75c0-.42-.34-.75-.75-.75h-1c-3.95,0-7.62,1.23-10.65,3.33C48.29,3.73,41.22,.11,33.44,0c-7.13-.12-13.86,2.61-18.93,7.61-5.06,4.99-7.85,11.64-7.87,18.73-.14,.51-1.15,3.97-5.41,9.01-.55,.65-1.43,1.96-1.19,3.36,.15,.88,.72,1.61,1.68,2.17,1.9,1.1,4.03,2.02,5.01,2.42-.18,1.62-.61,6.23-.02,9.34,.65,3.37,6.54,3.88,10,3.88,1.66,0,2.61,.89,2.61,2.46v3.77c0,1.52,1.23,2.75,2.75,2.75h29.68c1.52,0,2.75-1.23,2.75-2.75,0-.79-.33-1.49-.86-2,.53-.51,.86-1.21,.86-2s-.33-1.49-.86-2c.53-.51,.86-1.21,.86-2v-1.25h1.2c.42,0,.75-.34,.75-.75v-3.83c0-2.61,1.1-5.12,3.1-7.07,2.72-2.67,4.56-5.96,5.4-9.55,.07-.3,.14-.6,.19-.9,.02-.06,.03-.12,.04-.18,.01-.04,.02-.08,.02-.12,.03-.15,.05-.3,.07-.45,.04-.15,.06-.3,.07-.45,.03-.24,.06-.47,.08-.71,.03-.24,.05-.49,.06-.74,.01-.33,.02-.66,.02-1,0-3.85-1.08-7.52-3.12-10.66,1.97-2.97,3.12-6.52,3.12-10.34Zm-1.64,23.13c-.76,6.17-4.79,11.34-10.3,13.71-.73,.32-1.48,.59-2.26,.79-1.34,.38-2.75,.59-4.2,.61,2.99-4.67,6.64-7.99,9.41-10.07h0c.76-.58,1.45-1.06,2.04-1.46,1.29-.84,2.12-1.27,2.14-1.28,.37-.18,.52-.63,.33-1-.18-.37-.63-.52-1.01-.34-.07,.04-.42,.22-.98,.54-.46,.28-1.07,.65-1.78,1.13-2.69,1.82-6.89,5.16-10.49,10.28,1.06-6.12,5.35-11.14,11.04-13.23,.51-.19,1.03-.36,1.56-.49,1.4-.37,2.87-.57,4.39-.57h.23c-.02,.47-.07,.92-.12,1.38Zm-26.11,22.12h-1.2v-2.87c0-3.15-1.25-6.15-3.43-8.24-3.73-3.57-5.78-8.58-5.61-13.74,.02-.58,.06-1.15,.14-1.72,2.93,6.52,9.49,11.07,17.1,11.07h.25v15.5h-7.25ZM27.52,18.5h.23c.19,0,.38,0,.57,.01,.56,.02,1.11,.06,1.65,.14,7.5,.96,13.5,6.75,14.78,14.16h0s0,.02,0,.03c-5.7-8.12-12.93-11.83-13.27-12-.37-.18-.82-.04-1.01,.33-.19,.37-.04,.82,.34,1.01,.08,.04,7.98,4.08,13.57,12.81-7.64-.16-14.08-5.3-16.17-12.31-.27-.9-.46-1.82-.58-2.77-.06-.46-.1-.93-.12-1.41Zm17.48,6.24h0s0,0,0,.01v3.64c-2.48-5.77-7.77-10.06-14.14-11.13,3.13-4.43,8.17-7.42,13.89-7.73,2.38-.13,4.71,.19,6.88,.93-4.05,3.44-6.63,8.56-6.63,14.28Zm-22.93,39.26c-.69,0-1.25-.56-1.25-1.25v-3.77c0-2.41-1.62-3.96-4.11-3.96-3.7,0-8.15-.7-8.52-2.66-.67-3.51,.09-9.38,.1-9.44,.04-.35-.15-.68-.47-.8-.03-.01-2.94-1.14-5.35-2.54-.56-.33-.88-.7-.95-1.13-.15-.85,.62-1.85,.86-2.13,4.87-5.78,5.71-9.58,5.74-9.74,.01-.05,.02-.1,.02-.15,0-6.72,2.63-13.03,7.42-17.75C20.26,4.04,26.47,1.5,33.07,1.5h.35c6.47,.1,12.43,2.76,16.85,7.02-1.8-.43-3.68-.59-5.6-.49-6.47,.34-12.14,3.88-15.48,9.03-.48-.04-.96-.06-1.44-.06h-1c-.41,0-.75,.33-.75,.75,0,1.71,.23,3.37,.67,4.95-.39,1.41-.61,2.89-.66,4.4-.18,5.58,2.03,11.01,6.07,14.88,1.89,1.81,2.97,4.41,2.97,7.15v3.62c0,.41,.33,.75,.75,.75h1.2v1.25c0,.79,.33,1.49,.86,2-.53,.51-.86,1.21-.86,2s.33,1.49,.86,2c-.53,.51-.86,1.21-.86,2,0,.45,.11,.88,.3,1.25h-15.23Zm30.93-1.25c0,.69-.56,1.25-1.25,1.25h-12c-.69,0-1.25-.56-1.25-1.25s.56-1.25,1.25-1.25h12c.69,0,1.25,.56,1.25,1.25Zm0-4c0,.69-.56,1.25-1.25,1.25h-12c-.69,0-1.25-.56-1.25-1.25s.56-1.25,1.25-1.25h12c.69,0,1.25,.56,1.25,1.25Zm0-4c0,.69-.56,1.25-1.25,1.25h-12c-.69,0-1.25-.56-1.25-1.25v-1.25h14.5v1.25Zm1.95-5.83v3.08h-8.45v-5.5h.25c1.18,0,2.34-.11,3.46-.33,.7-.12,1.39-.29,2.06-.5,1.37-.42,2.67-.99,3.88-1.71-.79,1.55-1.2,3.23-1.2,4.96Zm9.03-21.92h-.23c-1.47,0-2.9,.17-4.27,.5-.52,.11-1.03,.25-1.52,.42-5.16,1.67-9.34,5.53-11.46,10.47,0,0,0,0,0,0v-2.6s0,0,0,0v-.05s0,0,0-.01v-10.23h.25c4.04,0,7.79-1.28,10.85-3.47,.46-.32,.9-.67,1.32-1.03,.92-.78,1.76-1.65,2.51-2.6,1.56,2.58,2.43,5.51,2.55,8.6Zm-3.43-9.93c-.61,.83-1.29,1.59-2.04,2.28-.4,.38-.83,.74-1.27,1.07-2.82,2.18-6.33,3.5-10.14,3.57,2.51-3.93,5.51-6.91,8.05-9,.41-.35,.8-.66,1.19-.95,.26-.2,.52-.39,.77-.58,.46-.33,.89-.62,1.27-.89,1.39-.92,2.28-1.38,2.31-1.39,.37-.18,.52-.63,.33-1-.18-.37-.63-.52-1.01-.34-.12,.06-1.24,.63-2.9,1.75-.4,.28-.84,.59-1.3,.93-.08,.07-.16,.13-.24,.18-.38,.29-.78,.61-1.19,.94h0c-2.37,1.93-5.14,4.62-7.62,8.15,.72-4.17,2.94-7.83,6.09-10.4,.13-.11,.26-.21,.39-.3,.26-.21,.53-.41,.81-.59,.19-.14,.39-.27,.59-.39,2.64-1.66,5.77-2.61,9.11-2.61h.23c-.13,3.02-1.04,5.84-2.54,8.26-.27,.45-.57,.89-.89,1.31Z"/><path d="M28.4,10.49c.19,0,.38-.07,.52-.21,.3-.29,.31-.76,.02-1.06s-.76-.31-1.06-.02c-.3,.29-.31,.76-.02,1.06,.15,.15,.34,.23,.54,.23Z"/><path d="M32.38,7.37c.14,0,.28-.04,.4-.12,.35-.22,.46-.69,.24-1.04-.22-.35-.69-.45-1.04-.23-.35,.22-.45,.69-.23,1.04,.14,.22,.39,.35,.63,.35Z"/><path d="M28.63,46.71c.2,0,.4-.08,.55-.23,.28-.31,.27-.78-.03-1.06-.31-.29-.78-.27-1.06,.03-.29,.3-.27,.77,.03,1.06,.14,.14,.33,.2,.51,.2Z"/><path d="M33.03,48.4c-.35-.22-.81-.11-1.03,.24-.22,.35-.11,.82,.24,1.03h0c.13,.08,.26,.12,.4,.12,.25,0,.49-.13,.64-.36,.21-.35,.1-.82-.25-1.03Z"/><path d="M36.9,5.11c.09,0,.18-.02,.26-.05,.39-.15,.59-.58,.44-.97-.15-.39-.58-.58-.97-.44h0c-.39,.15-.58,.58-.43,.97,.11,.3,.39,.49,.7,.49Z"/><path d="M20.75,28.65c.41,0,.75-.34,.74-.75,0-.42-.34-.75-.75-.75s-.75,.34-.75,.75h0c.01,.42,.34,.75,.75,.75h.01Z"/><path d="M21.07,23.6c.05,.01,.1,.02,.15,.02,.35,0,.66-.25,.73-.61,.09-.4-.18-.8-.58-.88-.41-.08-.81,.18-.89,.59-.08,.41,.19,.8,.59,.88Z"/><path d="M22.41,18.72c.1,.04,.2,.06,.29,.06,.3,0,.57-.17,.69-.46,.16-.38-.01-.82-.39-.98-.39-.16-.83,.02-.99,.4-.16,.38,.02,.82,.4,.98Z"/><path d="M25.13,14.35c.24,0,.47-.12,.62-.33,.23-.34,.15-.81-.19-1.04-.35-.24-.81-.15-1.05,.19-.23,.34-.14,.81,.2,1.05,.13,.09,.27,.13,.42,.13Z"/><path d="M24.88,41.54c-.34,.24-.42,.7-.18,1.04,.15,.21,.38,.32,.61,.32,.15,0,.31-.05,.44-.14,.34-.24,.42-.71,.18-1.04-.24-.34-.71-.42-1.05-.18Z"/><path d="M21.13,32.19c-.41,.09-.66,.49-.58,.89,.07,.36,.39,.6,.73,.6,.05,0,.11,0,.16-.02,.41-.08,.67-.48,.58-.89-.09-.4-.48-.66-.89-.58Z"/><path d="M22.52,37.06c-.38,.16-.55,.6-.39,.98,.13,.28,.4,.45,.69,.45,.1,0,.21-.02,.3-.06,.38-.16,.56-.61,.39-.99-.16-.38-.61-.55-.99-.38Z"/><path d="M60.75,56c-1.52,0-2.75,1.23-2.75,2.75s1.23,2.75,2.75,2.75,2.75-1.23,2.75-2.75-1.23-2.75-2.75-2.75Zm0,4c-.69,0-1.25-.56-1.25-1.25s.56-1.25,1.25-1.25,1.25,.56,1.25,1.25-.56,1.25-1.25,1.25Z"/><path d="M29.75,52c-1.52,0-2.75,1.23-2.75,2.75s1.23,2.75,2.75,2.75,2.75-1.23,2.75-2.75-1.24-2.75-2.75-2.75Zm0,4c-.69,0-1.25-.56-1.25-1.25s.56-1.25,1.25-1.25,1.25,.56,1.25,1.25-.56,1.25-1.25,1.25Z"/><path d="M14.74,36c-1.51,0-2.75,1.23-2.75,2.75s1.24,2.75,2.75,2.75,2.75-1.24,2.75-2.75-1.23-2.75-2.75-2.75Zm0,4c-.68,0-1.25-.56-1.25-1.25s.57-1.25,1.25-1.25,1.25,.56,1.25,1.25-.56,1.25-1.25,1.25Z"/><path d="M62.75,46c-1.52,0-2.75,1.23-2.75,2.75s1.23,2.75,2.75,2.75,2.75-1.24,2.75-2.75-1.23-2.75-2.75-2.75Zm0,4c-.69,0-1.25-.56-1.25-1.25s.56-1.25,1.25-1.25,1.25,.56,1.25,1.25-.56,1.25-1.25,1.25Z"/><path d="M54.75,5.5c1.52,0,2.75-1.23,2.75-2.75S56.27,0,54.75,0s-2.75,1.23-2.75,2.75,1.23,2.75,2.75,2.75Zm0-4c.69,0,1.25,.56,1.25,1.25s-.56,1.25-1.25,1.25-1.25-.56-1.25-1.25,.56-1.25,1.25-1.25Z"/></g></g></svg>