<?xml version="1.0" encoding="UTF-8"?><svg id="Layer_2" xmlns="http://www.w3.org/2000/svg" viewBox="0 0 65.5 65.5"><g id="_1"><g><path d="M62.75,24h-13.25v-7.25c0-1.52-1.23-2.75-2.75-2.75h-5.49c-.59-3.58-2.29-6.86-4.99-9.41C32.9,1.4,28.49-.22,23.83,.02c-7.85,.42-14.31,6.39-15.59,13.98H2.75c-1.52,0-2.75,1.23-2.75,2.75V56.75c0,.29,.16,.55,.43,.68,.1,.05,.21,.07,.32,.07,.17,0,.33-.06,.47-.16l9.79-7.84h4.99v5.25c0,1.52,1.23,2.75,2.75,2.75H54.49l9.79,7.84c.14,.11,.3,.16,.47,.16,.11,0,.22-.02,.32-.07,.26-.12,.43-.39,.43-.68V26.75c0-1.52-1.23-2.75-2.75-2.75ZM23.91,1.52c4.24-.24,8.26,1.25,11.33,4.16,3.07,2.91,4.76,6.84,4.76,11.07s-1.63,7.99-4.59,10.88c-1.95,1.91-3.03,4.37-3.03,6.94v1.21h-3.42l4.51-16.12c.08-.3-.03-.62-.28-.81-.25-.18-.59-.19-.86-.02l-3.91,2.61-3.21-2.57c-.27-.22-.66-.22-.94,0l-3.21,2.57-3.91-2.61c-.26-.17-.6-.17-.85,.02-.25,.18-.37,.5-.28,.81l4.43,16.13h-3.34v-1.03c0-2.68-1.07-5.24-2.92-7.02-3.12-2.99-4.83-7.17-4.69-11.49,.25-7.84,6.58-14.31,14.4-14.73Zm-4.16,39.76h10c.69,0,1.25,.56,1.25,1.25s-.56,1.25-1.25,1.25h-10c-.69,0-1.25-.56-1.25-1.25s.56-1.25,1.25-1.25Zm11.25-2.75c0,.69-.56,1.25-1.25,1.25h-10c-.69,0-1.25-.56-1.25-1.25v-1.25h12.5v1.25Zm-8.98-2.75l-4.01-14.59,2.69,1.79c.27,.18,.63,.16,.88-.04l3.17-2.54,3.17,2.54c.26,.2,.61,.22,.89,.04l2.68-1.79-4.08,14.58h-5.39Zm-11.27,12.21c-.17,0-.33,.06-.47,.16L1.5,55.19V16.75c0-.69,.56-1.25,1.25-1.25h5.32c-.02,.23-.05,.46-.06,.7-.15,4.74,1.72,9.33,5.15,12.62,1.57,1.5,2.46,3.66,2.46,5.94v1.78c0,.41,.34,.75,.75,.75h.63v1.25c0,.79,.34,1.5,.88,2-.54,.5-.88,1.21-.88,2,0,1.52,1.23,2.75,2.75,2.75h10c1.52,0,2.75-1.23,2.75-2.75,0-.79-.34-1.5-.88-2,.54-.5,.88-1.21,.88-2v-1.25h.63c.41,0,.75-.34,.75-.75v-1.96c0-2.16,.92-4.25,2.58-5.87,3.25-3.18,5.04-7.42,5.04-11.96,0-.42-.03-.83-.06-1.25h5.31c.69,0,1.25,.56,1.25,1.25v30c0,.69-.56,1.25-1.25,1.25H10.75Zm53.25,15.19l-8.78-7.03c-.13-.11-.3-.16-.47-.16H18.75c-.69,0-1.25-.56-1.25-1.25v-5.25h29.25c1.52,0,2.75-1.23,2.75-2.75V25.5h13.25c.69,0,1.25,.56,1.25,1.25V63.19Z"/><path d="M34.79,14.68c.07,.36,.38,.6,.73,.6,.05,0,.1,0,.15-.02,.41-.08,.67-.48,.58-.88-.22-1.1-.6-2.15-1.13-3.14-.2-.37-.65-.5-1.01-.31-.37,.19-.5,.65-.31,1.01,.46,.86,.79,1.78,.98,2.74Z"/><path d="M18.23,8.84c1.83-1.51,4.15-2.34,6.52-2.34,2.59,0,5.06,.97,6.96,2.72,.14,.13,.33,.2,.51,.2,.2,0,.4-.08,.55-.24,.28-.3,.26-.78-.04-1.06-2.18-2.01-5.01-3.12-7.98-3.12-2.73,0-5.38,.95-7.48,2.69-.32,.26-.36,.74-.1,1.06,.26,.32,.74,.36,1.06,.1Z"/><path d="M4.42,37.92h-1.14c-.34,0-.62,.28-.62,.62s.28,.62,.62,.62h1.14c.34,0,.62-.28,.62-.62s-.28-.62-.62-.62Z"/><path d="M8.21,37.92h-1.14c-.34,0-.62,.28-.62,.62s.28,.62,.62,.62h1.14c.34,0,.62-.28,.62-.62s-.28-.62-.62-.62Z"/><path d="M5.75,39.25c-.34,0-.62,.28-.62,.62v1.14c0,.34,.28,.62,.62,.62s.62-.28,.62-.62v-1.14c0-.34-.28-.62-.62-.62Z"/><path d="M5.75,35.45c-.34,0-.62,.28-.62,.62v1.14c0,.34,.28,.62,.62,.62s.62-.28,.62-.62v-1.14c0-.34-.28-.62-.62-.62Z"/><path d="M22.7,61h-1.38c-.41,0-.75,.34-.75,.75s.34,.75,.75,.75h1.38c.41,0,.75-.34,.75-.75s-.34-.75-.75-.75Z"/><path d="M27.31,61h-1.38c-.41,0-.75,.34-.75,.75s.34,.75,.75,.75h1.38c.41,0,.75-.34,.75-.75s-.34-.75-.75-.75Z"/><path d="M24.31,62.62c-.41,0-.75,.34-.75,.75v1.38c0,.41,.34,.75,.75,.75s.75-.34,.75-.75v-1.38c0-.41-.34-.75-.75-.75Z"/><path d="M24.31,58c-.41,0-.75,.34-.75,.75v1.38c0,.41,.34,.75,.75,.75s.75-.34,.75-.75v-1.38c0-.41-.34-.75-.75-.75Z"/><path d="M52.7,41h-1.38c-.41,0-.75,.34-.75,.75s.34,.75,.75,.75h1.38c.41,0,.75-.34,.75-.75s-.34-.75-.75-.75Z"/><path d="M57.31,41h-1.38c-.41,0-.75,.34-.75,.75s.34,.75,.75,.75h1.38c.41,0,.75-.34,.75-.75s-.34-.75-.75-.75Z"/><path d="M54.31,42.62c-.41,0-.75,.34-.75,.75v1.38c0,.41,.34,.75,.75,.75s.75-.34,.75-.75v-1.38c0-.41-.34-.75-.75-.75Z"/><path d="M54.31,38c-.41,0-.75,.34-.75,.75v1.38c0,.41,.34,.75,.75,.75s.75-.34,.75-.75v-1.38c0-.41-.34-.75-.75-.75Z"/><path d="M42.31,6.5h1.38c.41,0,.75-.34,.75-.75s-.34-.75-.75-.75h-1.38c-.41,0-.75,.34-.75,.75s.34,.75,.75,.75Z"/><path d="M46.93,6.5h1.38c.41,0,.75-.34,.75-.75s-.34-.75-.75-.75h-1.38c-.41,0-.75,.34-.75,.75s.34,.75,.75,.75Z"/><path d="M45.31,9.5c.41,0,.75-.34,.75-.75v-1.38c0-.41-.34-.75-.75-.75s-.75,.34-.75,.75v1.38c0,.41,.34,.75,.75,.75Z"/><path d="M45.31,4.88c.41,0,.75-.34,.75-.75v-1.38c0-.41-.34-.75-.75-.75s-.75,.34-.75,.75v1.38c0,.41,.34,.75,.75,.75Z"/><path d="M58.32,13.5h1.38c.41,0,.75-.34,.75-.75s-.34-.75-.75-.75h-1.38c-.41,0-.75,.34-.75,.75s.34,.75,.75,.75Z"/><path d="M62.93,13.5h1.38c.41,0,.75-.34,.75-.75s-.34-.75-.75-.75h-1.38c-.41,0-.75,.34-.75,.75s.34,.75,.75,.75Z"/><path d="M61.32,16.5c.41,0,.75-.34,.75-.75v-1.38c0-.41-.34-.75-.75-.75s-.75,.34-.75,.75v1.38c0,.41,.34,.75,.75,.75Z"/><path d="M61.32,11.88c.41,0,.75-.34,.75-.75v-1.38c0-.41-.34-.75-.75-.75s-.75,.34-.75,.75v1.38c0,.41,.34,.75,.75,.75Z"/><circle cx="5.75" cy="32.68" r=".75"/><circle cx="5.75" cy="29.68" r=".75"/><circle cx="5.75" cy="25.68" r=".75"/><circle cx="5.75" cy="19.68" r=".75"/></g></g></svg>