<?xml version="1.0" encoding="UTF-8"?><svg id="Layer_1" xmlns="http://www.w3.org/2000/svg" viewBox="0 0 720 720"><defs><style>.cls-1{fill:#fff;}</style></defs><path class="cls-1" d="M315.68,356.26c3.1,7.04,4.77,14.93,4.8,24.68-.47,16.01-6.61,31.31-21.54,42.11-17.51,12.66-40.78,10.34-56.04-5.28-20.18-20.65-20.36-55.37-.41-76.18,22.3-23.27,59.77-15.76,73.19,14.67Z"/><path class="cls-1" d="M484.87,351.26c5.01,8.65,7.32,17.99,7.45,27.58-.22,13.44-3.91,25.35-12.26,35.57-18.2,22.26-49.16,22.4-68,.38-16.95-19.79-16.77-51.61,.41-71.21,20.81-23.75,56.36-19.96,72.4,7.68Z"/><path class="cls-1" d="M618.41,34.93H101.6c-36.67,0-66.67,30-66.67,66.67V618.41c0,36.66,30,66.66,66.67,66.66H618.41c36.66,0,66.66-30,66.66-66.66V101.6c0-36.67-30-66.67-66.66-66.67Zm.38,433.05c-1.26,.73-.75,1.97-.83,3.01-.42,5.41-.85,10.83-1.17,16.25-.14,2.26-1.04,3.79-2.92,5.15-38.29,27.59-79.84,48.64-124.93,62.71-2.75,.86-4.22,.46-5.88-1.88-8.98-12.61-17.14-25.72-24.4-39.4-1.38-2.6-.81-3.34,1.69-4.28,11.74-4.43,23.08-9.77,34.08-15.8,6.87-3.77,6.71-3.62,.76-8.69-3.14-2.68-5.63-3.06-9.58-1.29-35.45,15.94-72.64,24.95-111.48,26.69-47.41,2.12-92.97-6.47-136.47-25.31-6.54-2.83-11.09-2.91-16.08,2.2-2.1,2.16-2.69,2.77,.3,4.44,12.07,6.72,24.45,12.75,37.37,17.64,2.36,.9,3.36,1.56,1.89,4.32-7.37,13.79-15.56,27.03-24.67,39.73-1.44,2.02-2.73,2.48-5.19,1.71-45.4-14.05-87.16-35.3-125.65-63.06-1.43-1.03-2.27-2.1-2.44-4.02-3.63-40.03-2.39-79.84,4.81-119.43,11.14-61.37,35.75-117.15,70.19-168.85,1.2-1.79,2.58-3.11,4.6-4.02,32.44-14.54,66.17-24.86,101.16-31.17,2.26-.41,3.6,0,4.65,2.17,3.45,7.15,7.18,14.15,10.56,21.33,1.2,2.54,2.17,3.74,5.48,3.27,37.07-5.23,74.18-5.06,111.25,.05,2.47,.34,3.4-.31,4.38-2.41,3.41-7.31,7.11-14.49,10.57-21.79,1.13-2.39,2.55-3.12,5.23-2.63,34.68,6.35,68.16,16.56,100.38,30.88,2.27,1.01,3.88,2.49,5.25,4.53,43.21,64.38,69.95,134.6,75.72,212.33,.27,3.75-.47,7.71,1.37,11.3v44.32Z"/></svg>