<?xml version="1.0" encoding="UTF-8"?><svg id="Layer_2" xmlns="http://www.w3.org/2000/svg" viewBox="0 0 65.51 68.61"><g id="_1"><g><path d="M48.21,9.35c-4.58-4.34-10.59-6.54-16.9-6.21-11.67,.62-21.11,10.27-21.49,21.97-.21,6.43,2.34,12.68,6.99,17.14,2.21,2.11,3.47,5.16,3.47,8.36v1.25c0,.41,.34,.75,.75,.75h.78v1.25c0,.78,.33,1.5,.87,2-.54,.5-.87,1.21-.87,2s.33,1.5,.87,2c-.54,.5-.87,1.21-.87,2,0,1.51,1.23,2.75,2.75,2.75h16c1.51,0,2.75-1.24,2.75-2.75,0-.79-.33-1.5-.87-2,.54-.51,.87-1.22,.87-2s-.33-1.5-.87-2c.54-.51,.87-1.22,.87-2v-1.25h.77c.42,0,.75-.34,.75-.75v-1.49c0-3.05,1.29-5.99,3.63-8.27,4.42-4.32,6.85-10.08,6.85-16.24s-2.52-12.17-7.1-16.51Zm-6.4,52.51c0,.69-.56,1.25-1.25,1.25H24.56c-.69,0-1.25-.56-1.25-1.25s.56-1.25,1.25-1.25h16c.69,0,1.25,.56,1.25,1.25Zm0-4c0,.69-.56,1.25-1.25,1.25H24.56c-.69,0-1.25-.56-1.25-1.25s.56-1.25,1.25-1.25h16c.69,0,1.25,.56,1.25,1.25Zm0-4c0,.69-.56,1.25-1.25,1.25H24.56c-.69,0-1.25-.56-1.25-1.25v-1.25h18.5v1.25Zm-13.23-2.75l-5.73-19.76,4.29,2.86c.27,.18,.63,.16,.88-.04l4.54-3.63,4.53,3.63c.25,.2,.61,.22,.88,.04l4.28-2.86-5.82,19.76h-7.85Zm18.83-10.09c-2.63,2.57-4.08,5.89-4.08,9.35v.74h-5.34l6.29-21.31c.09-.31-.02-.63-.28-.82-.25-.19-.6-.19-.86-.02l-5.54,3.7-4.57-3.66c-.28-.22-.67-.22-.94,0l-4.57,3.66-5.55-3.7c-.26-.17-.6-.17-.86,.02-.25,.19-.36,.51-.27,.81l6.17,21.32h-5.23v-.5c0-3.6-1.43-7.05-3.93-9.45-4.35-4.16-6.72-9.99-6.53-16,.35-10.93,9.17-19.94,20.07-20.52,5.89-.32,11.51,1.74,15.78,5.79,4.28,4.06,6.64,9.54,6.64,15.43s-2.27,11.14-6.4,15.16Z"/><path d="M38.56,67.11h-12c-.41,0-.75,.34-.75,.75s.34,.75,.75,.75h12c.41,0,.75-.34,.75-.75s-.34-.75-.75-.75Z"/><path d="M57.76,55.11c-1.79,0-3.25-1.46-3.25-3.25,0-.42-.34-.75-.75-.75s-.75,.33-.75,.75c0,1.79-1.46,3.25-3.25,3.25-.42,0-.75,.33-.75,.75s.33,.75,.75,.75c1.79,0,3.25,1.46,3.25,3.25,0,.41,.33,.75,.75,.75s.75-.34,.75-.75c0-1.79,1.46-3.25,3.25-3.25,.41,0,.75-.34,.75-.75s-.34-.75-.75-.75Zm-4,2.19c-.37-.58-.87-1.07-1.44-1.44,.57-.37,1.07-.87,1.44-1.44,.37,.57,.86,1.07,1.44,1.44-.58,.37-1.07,.86-1.44,1.44Z"/><path d="M64.76,39.1c-1.79,0-3.25-1.45-3.25-3.25,0-.41-.34-.75-.75-.75s-.75,.34-.75,.75c0,1.8-1.46,3.25-3.25,3.26-.42,0-.75,.33-.75,.75s.33,.75,.75,.75c1.79,0,3.25,1.45,3.25,3.24,0,.42,.33,.75,.75,.75s.75-.33,.75-.75c0-1.79,1.46-3.24,3.25-3.25,.41,0,.75-.33,.75-.75s-.34-.75-.75-.75Zm-4,2.2c-.37-.58-.86-1.07-1.44-1.45,.58-.37,1.07-.86,1.44-1.44,.37,.58,.86,1.07,1.44,1.44-.58,.38-1.07,.87-1.44,1.45Z"/><path d="M51.76,8.6c1.79,0,3.25,1.46,3.25,3.25,0,.42,.33,.75,.75,.75s.75-.33,.75-.75c0-1.79,1.46-3.25,3.25-3.25,.41,0,.75-.33,.75-.75s-.34-.75-.75-.75c-1.79,0-3.25-1.46-3.25-3.25,0-.41-.34-.75-.75-.75s-.75,.34-.75,.75c0,1.79-1.46,3.25-3.25,3.25-.42,0-.75,.34-.75,.75s.33,.75,.75,.75Zm4-2.19c.37,.58,.86,1.07,1.44,1.44-.58,.37-1.07,.87-1.44,1.44-.37-.57-.87-1.07-1.44-1.44,.57-.37,1.07-.86,1.44-1.44Z"/><path d="M9.5,36.85c0-.41-.33-.75-.75-.75-1.79,0-3.25-1.45-3.25-3.25,0-.41-.33-.75-.75-.75s-.75,.34-.75,.75c0,1.8-1.46,3.25-3.25,3.25-.41,0-.75,.34-.75,.75s.34,.75,.75,.75c1.79,0,3.25,1.46,3.25,3.25,0,.42,.34,.75,.75,.75s.75-.33,.75-.75c0-1.79,1.46-3.25,3.25-3.25,.42,0,.75-.33,.75-.75Zm-4.75,1.45c-.37-.58-.86-1.07-1.44-1.45,.58-.37,1.07-.86,1.44-1.44,.37,.58,.87,1.07,1.44,1.44-.57,.38-1.07,.87-1.44,1.45Z"/><path d="M16.76,63.11c-1.79,0-3.25-1.46-3.25-3.25,0-.42-.34-.75-.75-.75s-.75,.33-.75,.75c0,1.79-1.46,3.25-3.25,3.25-.42,0-.75,.33-.75,.75s.33,.75,.75,.75c1.79,0,3.25,1.46,3.25,3.25,0,.41,.33,.75,.75,.75s.75-.34,.75-.75c0-1.79,1.46-3.25,3.25-3.25,.41,0,.75-.34,.75-.75s-.34-.75-.75-.75Zm-4,2.19c-.37-.58-.86-1.07-1.44-1.44,.58-.37,1.07-.87,1.44-1.44,.37,.57,.86,1.07,1.44,1.44-.58,.37-1.07,.86-1.44,1.44Z"/><path d="M49.66,21.1c-.11-.4-.53-.63-.92-.52-.4,.11-.63,.52-.52,.92,.39,1.41,.59,2.88,.59,4.36,0,.41,.34,.75,.75,.75s.75-.34,.75-.75c0-1.62-.22-3.21-.64-4.76Z"/><path d="M38.26,9.04c-.39-.13-.82,.08-.95,.47-.13,.39,.08,.82,.47,.95,3.76,1.27,6.92,3.88,8.9,7.34,.14,.24,.39,.38,.65,.38,.13,0,.25-.03,.37-.1,.36-.21,.48-.66,.28-1.02-2.16-3.78-5.61-6.63-9.72-8.02Z"/><path d="M7.75,11.42h0c.35,.22,.82,.1,1.02-.26,.22-.36,.09-.82-.26-1.03-.36-.22-.82-.09-1.03,.26h0c-.2,.37-.09,.82,.26,1.03Z"/><path d="M10.74,7.35c.3,.18,.69,.12,.94-.15,.28-.3,.26-.78-.05-1.05-.31-.28-.79-.26-1.07,.05-.28,.31-.25,.78,.06,1.06,.04,.03,.08,.07,.12,.09Z"/><path d="M14.49,3.96c.26,.15,.58,.15,.83-.04,.33-.25,.41-.71,.17-1.04-.25-.34-.72-.41-1.06-.16-.33,.24-.4,.71-.16,1.05,.06,.09,.14,.15,.22,.2Z"/><path d="M18.85,1.4c.21,.12,.47,.14,.7,.03,.37-.17,.54-.62,.37-.99-.18-.39-.62-.54-1-.38-.37,.17-.54,.62-.37,1,.07,.14,.17,.25,.29,.33Z"/><path d="M4.36,26c.13,.08,.29,.12,.45,.11,.42-.03,.72-.39,.69-.8-.03-.41-.39-.72-.81-.69-.42,.03-.72,.39-.69,.8,.02,.26,.16,.47,.36,.59Z"/><path d="M5.63,16.02s.1,.05,.15,.07c.39,.14,.82-.07,.95-.47,.13-.39-.07-.81-.47-.95-.4-.13-.82,.08-.95,.47-.12,.34,.03,.71,.32,.89Z"/><path d="M4.49,20.94c.09,.05,.19,.09,.29,.1,.41,.06,.79-.24,.84-.65,.06-.41-.24-.78-.66-.83-.41-.06-.78,.23-.84,.64-.03,.31,.11,.59,.36,.74Z"/></g></g></svg>