<?xml version="1.0" encoding="UTF-8"?><svg id="Layer_1" xmlns="http://www.w3.org/2000/svg" viewBox="0 0 720 720"><defs><style>.cls-1{fill:#fff;}</style></defs><path class="cls-1" d="M443.19,373.53c-.18,45.54-36.91,82.23-82.12,82.05-45.4-.19-82.1-37.41-81.81-83,.28-45.16,37.44-81.76,82.77-81.54,44.89,.22,81.34,37.28,81.16,82.49Z"/><path class="cls-1" d="M481.08,230.26c-8.3,0-15.48,7.37-15.29,15.68,.19,8.33,6.98,14.58,15.73,14.49,8.91-.1,15.26-6.27,15.28-14.85,.01-8.28-7.21-15.32-15.72-15.32Zm0,0c-8.3,0-15.48,7.37-15.29,15.68,.19,8.33,6.98,14.58,15.73,14.49,8.91-.1,15.26-6.27,15.28-14.85,.01-8.28-7.21-15.32-15.72-15.32ZM618.4,34.93H101.6c-36.67,0-66.67,30-66.67,66.67V618.4c0,36.67,30,66.67,66.67,66.67H618.4c36.67,0,66.67-30,66.67-66.67V101.6c0-36.67-30-66.67-66.67-66.67Zm-36.97,432.82c-.55,60.1-47.52,113.84-106.89,123.64-7.24,1.2-14.48,2.01-21.81,2.01-61.19-.02-122.38,.4-183.56-.13-69.94-.61-126.87-57.82-127.66-127.69-.35-30.92-.06-61.85-.06-92.78h-.03c0-29.6-.1-59.19,.02-88.79,.24-62.89,42.07-114.61,103.51-128.09,8.79-1.93,17.71-2.72,26.72-2.72,59.69,.04,119.39-.06,179.08,.04,71.99,.14,130.01,56.97,130.72,128.96,.61,61.84,.52,123.7-.04,185.55Zm-27.45-205.47c-10.82-49.72-52.68-83.49-103.89-83.58-59.02-.1-118.05-.03-177.07-.01-6.49,0-12.94,.53-19.36,1.54-45.91,7.19-83.85,48.43-86.22,94.82-1.67,32.72-.17,65.5-.57,91.83,0,35.35-.01,64.28,.01,93.21,.01,7.99,.43,15.95,2.1,23.8,10.68,50.21,52.65,83.97,105.02,84.1,58.19,.16,116.38,.04,174.58,.04,14.6-.01,28.92-2.04,42.29-8.07,43.73-19.76,64.73-54.65,65.22-101.81,.6-57.53,.16-115.06,.13-172.59,0-7.82-.57-15.61-2.24-23.28Zm-192.54,218.83c-59.15-.1-107.41-48.32-107.65-107.57-.24-59.21,48.34-107.94,107.69-108.01,58.84-.08,107.3,48.64,107.29,107.86,0,59.34-48.31,107.82-107.33,107.72Zm119.51-194.73c-23.68-.47-40.64-18.34-40.15-42.3,.46-22.35,18.53-39.57,41.19-39.24,22.56,.32,41.18,19.06,40.85,41.12-.35,22.96-18.91,40.87-41.89,40.42Zm.13-56.12c-8.3,0-15.48,7.37-15.29,15.68,.19,8.33,6.98,14.58,15.73,14.49,8.91-.1,15.26-6.27,15.28-14.85,.01-8.28-7.21-15.32-15.72-15.32Z"/></svg>