<?xml version="1.0" encoding="UTF-8"?><svg id="Layer_2" xmlns="http://www.w3.org/2000/svg" viewBox="0 0 65.5 65.5"><g id="_1"><g><path d="M52.56,4.77c-.06,0-.13,.03-.19,.05-.06,.03-.12,.06-.17,.1-.06,.03-.11,.07-.15,.12-.05,.05-.09,.1-.13,.15-.03,.06-.06,.12-.09,.18-.02,.06-.04,.12-.06,.18,0,.07-.02,.13-.02,.2,0,.13,.03,.26,.08,.38,.05,.12,.12,.23,.22,.32,.09,.1,.2,.17,.32,.22,.12,.05,.25,.08,.38,.08,.14,0,.27-.03,.39-.08,.12-.05,.23-.12,.32-.22,.1-.09,.17-.2,.22-.32,.05-.12,.07-.25,.07-.38,0-.27-.1-.52-.29-.71-.23-.23-.57-.34-.9-.27Z"/><circle cx="46.75" cy="5.75" r="1"/><path d="M40.37,4.82c-.12,.06-.23,.13-.32,.22-.19,.19-.3,.44-.3,.71,0,.13,.03,.26,.08,.38,.05,.12,.12,.23,.22,.32,.09,.1,.2,.17,.32,.22,.12,.05,.25,.08,.39,.08,.26,0,.51-.11,.7-.3,.09-.09,.17-.2,.22-.32,.05-.12,.07-.25,.07-.38,0-.27-.1-.52-.29-.71-.28-.28-.72-.36-1.09-.22Z"/><path d="M65.5,37.75c0-5.8-2.29-11.07-6-14.98V2.75c0-1.52-1.23-2.75-2.75-2.75H8.75c-1.52,0-2.75,1.23-2.75,2.75v7.99s0,0,0,.01v5.25H1.75c-.96,0-1.75,.79-1.75,1.75v11c0,.96,.79,1.75,1.75,1.75H6v9.5H1.75c-.96,0-1.75,.79-1.75,1.75v11c0,.96,.79,1.75,1.75,1.75H6v8.25c0,1.52,1.23,2.75,2.75,2.75H56.75c1.52,0,2.75-1.23,2.75-2.75v-10.02c3.71-3.9,6-9.18,6-14.98Zm-39.19,10.28c.58-.59,.94-1.39,.94-2.28,0-1.77-1.42-3.2-3.18-3.24-.32-1.31-.5-2.65-.55-4.01h7.33c.09,3.46,.93,6.82,2.41,9.9-1.55,.86-3,1.92-4.32,3.15-.99-1.06-1.88-2.24-2.63-3.52Zm32.23,3.51c-1.32-1.23-2.76-2.28-4.3-3.14,.25-.52,.46-1.05,.67-1.59,.02,0,.04,0,.07,0,1.79,0,3.25-1.46,3.25-3.25,0-1.25-.72-2.33-1.76-2.87,.09-.73,.14-1.46,.17-2.19h7.33c-.19,5.03-2.21,9.59-5.42,13.04Zm-14.04-21.76c1.91-.06,3.79-.38,5.61-.93,.59,.83,1.55,1.37,2.64,1.37,.38,0,.74-.08,1.08-.2,.8,2.25,1.24,4.6,1.3,6.99h-10.64v-7.23Zm10-2.81c0,.96-.79,1.75-1.75,1.75s-1.75-.79-1.75-1.75,.79-1.75,1.75-1.75,1.75,.79,1.75,1.75Zm-5,0c0,.17,.02,.32,.05,.48-1.64,.49-3.33,.77-5.05,.83v-10.16c2.49,1.66,4.67,3.77,6.39,6.19-.84,.59-1.39,1.56-1.39,2.66Zm-6.5,1.31c-2.67-.1-5.29-.72-7.7-1.83,1.83-3.32,4.46-6.19,7.7-8.33v10.16Zm0,1.5v7.23h-2.11c-.34-1.43-1.62-2.5-3.15-2.5s-2.81,1.07-3.15,2.5h-2.22c.12-3.23,.9-6.36,2.25-9.22,2.62,1.21,5.48,1.89,8.38,1.99Zm-3.52,7.98c0,.96-.79,1.75-1.75,1.75s-1.75-.79-1.75-1.75,.79-1.75,1.75-1.75,1.75,.79,1.75,1.75Zm-4.9,.75c.34,1.43,1.62,2.5,3.15,2.5s2.81-1.07,3.15-2.5h2.11v7.23c-2.95,.1-5.79,.78-8.4,2-1.37-2.87-2.15-6.01-2.25-9.23h2.22Zm8.42,8.73v10.15c-3.24-2.16-5.87-5.03-7.71-8.32,2.4-1.11,5-1.73,7.71-1.83Zm1.5,0c2.7,.1,5.31,.72,7.71,1.83-1.85,3.34-4.5,6.19-7.71,8.31v-10.14Zm0-1.5v-7.23h10.64c-.02,.61-.07,1.22-.13,1.82,0,0-.01,0-.02,0-1.79,0-3.25,1.46-3.25,3.25,0,1.24,.7,2.3,1.72,2.85-.18,.44-.36,.88-.56,1.31-2.61-1.21-5.45-1.9-8.4-2Zm10.48-.42c-.96,0-1.75-.79-1.75-1.75s.79-1.75,1.75-1.75,1.75,.79,1.75,1.75-.79,1.75-1.75,1.75Zm1.65-8.32c-.07-2.69-.57-5.32-1.51-7.84,.54-.58,.87-1.35,.87-2.2,0-.3-.05-.58-.13-.85,.94-.64,1.84-1.35,2.68-2.13,3.21,3.45,5.22,8,5.41,13.02h-7.33Zm-1.5-12.23c-.59-.65-1.44-1.06-2.39-1.06-.14,0-.28,.02-.42,.04-1.57-2.3-3.54-4.35-5.78-6.04,4.19,.58,7.97,2.45,10.93,5.19-.74,.68-1.52,1.31-2.34,1.87Zm-21.17,1.01c-.76-.42-1.5-.9-2.2-1.42,.24-.45,.39-.96,.39-1.5,0-.52-.13-1-.35-1.43,2.73-2.01,5.86-3.27,9.18-3.72-2.91,2.18-5.29,4.95-7.02,8.08Zm-3.32-2.92c0,.96-.79,1.75-1.75,1.75s-1.75-.79-1.75-1.75,.79-1.75,1.75-1.75,1.75,.79,1.75,1.75Zm-3.19,2.9c.44,.22,.92,.35,1.44,.35,.7,0,1.35-.23,1.88-.61,.8,.59,1.63,1.14,2.5,1.62-1.46,3.06-2.29,6.42-2.41,9.89h-7.33c.15-4.1,1.49-7.96,3.93-11.25Zm-3.46,18.25c.96,0,1.75,.79,1.75,1.75s-.79,1.75-1.75,1.75-1.75-.79-1.75-1.75,.79-1.75,1.75-1.75Zm9.95,5.73c1.73,3.12,4.12,5.89,7.06,8.08-4.14-.57-7.98-2.4-11.01-5.2,1.21-1.13,2.53-2.09,3.95-2.88Zm19.59,0c1.41,.78,2.72,1.75,3.93,2.86-2.97,2.75-6.75,4.61-10.95,5.19,2.89-2.16,5.29-4.91,7.02-8.06ZM7.5,2.75c0-.69,.56-1.25,1.25-1.25H56.75c.69,0,1.25,.56,1.25,1.25v7.25H7.5V2.75ZM1.5,28.75v-11c0-.14,.11-.25,.25-.25H22.94l-3.72,3.72c-.14,.14-.22,.33-.22,.53v7c0,.14-.11,.25-.25,.25H1.75c-.14,0-.25-.11-.25-.25Zm0,24v-11c0-.14,.11-.25,.25-.25H15.94l-3.72,3.72c-.14,.14-.22,.33-.22,.53v7c0,.14-.11,.25-.25,.25H1.75c-.14,0-.25-.11-.25-.25Zm55.25,11.25H8.75c-.69,0-1.25-.56-1.25-1.25v-8.25h4.25c.96,0,1.75-.79,1.75-1.75v-6.69l4.78-4.78c.21-.21,.28-.54,.16-.82-.12-.28-.39-.46-.69-.46H7.5v-9.5h11.25c.96,0,1.75-.79,1.75-1.75v-6.69l4.78-4.78c.21-.21,.28-.54,.16-.82-.12-.28-.39-.46-.69-.46H7.5v-4.5H58v9.84c-3.82-3.32-8.8-5.34-14.25-5.34,0,0,0,0,0,0h0c-4.71,0-9.15,1.48-12.91,4.26-.54-.41-1.21-.66-1.94-.66-1.79,0-3.25,1.46-3.25,3.25,0,.73,.25,1.39,.66,1.94-2.81,3.77-4.3,8.23-4.3,12.96,0,0,0,0,0,0,0,0,0,0,0,0,0,1.72,.21,3.42,.61,5.07-1.09,.52-1.86,1.63-1.86,2.92,0,1.79,1.46,3.25,3.25,3.25,.36,0,.71-.07,1.04-.18,.94,1.58,2.05,3.02,3.32,4.29,0,0,.01,.02,.02,.03,.01,.01,.02,.01,.03,.02,4.02,4,9.51,6.35,15.34,6.35h0c5.45,0,10.43-2.02,14.25-5.34v8.59c0,.69-.56,1.25-1.25,1.25Z"/></g></g></svg>