<?xml version="1.0" encoding="UTF-8"?><svg id="Layer_1" xmlns="http://www.w3.org/2000/svg" viewBox="0 0 720 720"><defs><style>.cls-1{fill:#fff;}</style></defs><path class="cls-1" d="M618.4,34.93H101.6c-36.67,0-66.67,30-66.67,66.67V618.4c0,36.67,30,66.67,66.67,66.67H618.4c36.67,0,66.67-30,66.67-66.67V101.6c0-36.67-30-66.67-66.67-66.67Zm-127.6,265.13c.11-23.81,18.91-44.18,42.85-46.53,22.66-2.23,44.23,12.76,50.04,34.78,7.94,30.1-14.6,59.43-45.75,59.52-6.99,.02-13.98,0-20.98,0-8.06,0-16.13-.05-24.19,.04-1.58,.01-2.03-.36-2.02-2,.06-15.27-.02-30.54,.05-45.81Zm-118.52-58.75c0-19.77-.02-39.54,0-59.31,.04-26.74,22.32-48.39,49.09-47.26,21.86,.92,39.63,16.42,44.27,37.19,.81,3.64,1.12,7.32,1.12,11.03,.01,38.83,.01,77.66,0,116.49,0,21.59-12.57,39.53-33.16,46.09-16.26,5.17-31.35,1.98-44.46-9-11.55-9.69-16.96-22.32-16.89-37.41,.1-19.27,.03-38.55,.03-57.82Zm-143.06,156.58v20.78c0,23.43-15.58,42.58-38.53,47.34-23.39,4.86-48.44-10.76-54.34-33.94-4.4-17.28-.44-32.55,11.75-45.44,8.76-9.26,19.85-14.12,32.61-14.35,15.56-.27,31.13-.04,46.69-.1,1.56-.01,1.87,.5,1.86,1.94-.07,7.92-.04,15.85-.04,23.77Zm118.61,81.03v58.24c0,22.97-14.83,42.12-37.17,47.12-25.8,5.78-50.69-10.79-56.35-36.16-.78-3.49-1.08-7.04-1.08-10.61-.01-39.11-.04-78.22,0-117.33,.03-21.21,12.65-38.72,32.72-45.59,22.19-7.6,47.84,3.65,57.48,25.15,2.96,6.61,4.42,13.49,4.41,20.73-.03,19.48-.01,38.97-.01,58.45Zm-25.51-136.35c-7.22,3.63-14.81,5.38-22.86,5.37-19.41-.03-38.83-.01-58.24-.01h-58.67c-20.95,0-38.8-12.72-45.57-32.5-9.47-27.66,9.38-57.92,38.42-61.72,2.56-.34,5.12-.47,7.68-.48,38.83-.01,77.65-.01,116.48,0,21.51,0,38.99,12.49,45.96,32.78,7.35,21.38-2.95,46.39-23.2,56.56Zm23.12-113.14c-15.13-.08-30.26,.15-45.38-.09-24.79-.4-43.47-18.9-46.33-40.61-3.08-23.36,9.93-44.17,32.15-51.79,23.74-8.14,51.18,5.4,59.25,29.21,1.85,5.45,2.8,11.02,2.77,16.78-.04,6.92-.01,13.84-.01,20.76,0,7.78-.08,15.55,.05,23.33,.04,2.04-.62,2.41-2.5,2.41Zm97.71,349.57c-26.62,15.31-59.75,2.16-68.95-27.21-1.35-4.3-2.05-8.74-2.05-13.27-.01-15.19,.03-30.39-.05-45.59,0-1.8,.48-2.24,2.24-2.21,7.78,.09,15.56,.04,23.33,.04h20.34c24.06,0,43.09,15.01,47.91,38.54,3.98,19.39-4.82,39.38-22.77,49.7Zm109.21-114.38c-5.24,1.63-10.58,2.28-16.02,2.29-19.13,.04-38.25,.02-57.38,.02-19.41-.01-38.83,.01-58.24-.01-13.78-.02-25.68-4.72-35.32-14.67-23.84-24.6-13.94-66.11,18.41-77.33,5.23-1.82,10.61-2.74,16.15-2.74,39.26,.01,78.51,0,117.76,.01,22.48,0,41.68,15.36,46.66,37.29,5.31,23.41-9.02,48.02-32.02,55.14Z"/></svg>