<?xml version="1.0" encoding="UTF-8"?><svg id="Layer_1" xmlns="http://www.w3.org/2000/svg" viewBox="0 0 720 720"><defs><style>.cls-1{fill:#fff;}</style></defs><path class="cls-1" d="M558.02,259.61c15.97-4.7,28.67-8.44,44.04-12.96-2.66,4.49-3.38,7.23-5.16,8.5-31.56,22.48-35.94,55.44-41.56,91.2-31.06,197.57-234.37,263.59-376.83,199.24-6.49-2.93-14.4-4.73-19.51-14.95,47.44,2.26,90.43-6.16,126.75-40.69-11.09-3.41-21.22-6.22-31.13-9.65-18.31-6.34-32.68-17.92-43.05-34.24-7.54-11.87-16.79-24.37,8.69-30.15-30.92-21.1-52.98-44.49-51.04-84.17,11.36,5.41,21.05,10.02,35.71,17-25.47-42.83-54.47-80.92-25.85-130.58,27.5,26.68,55.69,50.89,88.89,68.47,29.11,15.42,59.87,24.9,92.86,27.16,11.09,.75,15.3-1.13,13.94-14.48-4.09-40.34,11.9-72.41,47.63-91.75,34.78-18.84,69.7-15.95,100.92,9.13,11.7,9.41,23.4,7.14,35.3,4.43,11.14-2.53,21.78-7.28,35.01-11.87-9,19.43-23.42,31.78-35.61,50.36Z"/><path class="cls-1" d="M618.4,34.93H101.6c-36.67,0-66.67,30-66.67,66.67V618.4c0,36.67,30,66.67,66.67,66.67H618.4c36.67,0,66.67-30,66.67-66.67V101.6c0-36.67-30-66.67-66.67-66.67Zm-.63,234.06c-25.53,22.82-31.99,50.5-37.45,83.08-37.77,225.01-270.17,286.34-416.56,214.27-9.88-4.87-19-11.34-28.27-17.39-10.95-7.16-16.7-16.83-11.64-30.04,4.69-12.25,14.71-15.05,26.93-14.59,24.65,.94,49.57,3.42,75.74-7.78-28.08-22.19-49.4-44.77-51.17-80.06-.26-5.22-6.67-10.08-10.08-15.22-18.65-28.13-30.18-57.56-15.77-91.35,2.88-6.74-1.34-11.95-3.02-17.57-8.29-27.82-6.24-54.69,6.09-80.91,12.14-25.81,27.93-28.72,47.84-8.44,35.44,36.11,75.18,65.31,124.62,79.58,14.44,4.17,21.68,4.83,25.49-14.96,16.33-85.02,107.38-123.82,179.76-77.19,17.25,11.11,30.37,4.53,44.27-2.66,29.78-15.42,40.17-10.47,44.8,22.62,.36,2.56,.63,5.99,2.3,7.39,22.7,18.95,11.34,37.62-3.88,51.22Z"/><g id="EwJb41"><path class="cls-1" d="M602.06,246.65c-2.66,4.49-3.38,7.23-5.16,8.5-31.56,22.48-35.94,55.44-41.56,91.2-31.06,197.57-234.37,263.59-376.83,199.24-6.49-2.93-14.4-4.73-19.51-14.95,47.44,2.26,90.43-6.16,126.75-40.69-11.09-3.41-21.22-6.22-31.13-9.65-18.31-6.34-32.68-17.92-43.05-34.24-7.54-11.87-16.79-24.37,8.69-30.15-30.92-21.1-52.98-44.49-51.04-84.17,11.36,5.41,21.05,10.02,35.71,17-25.47-42.83-54.47-80.92-25.85-130.58,27.5,26.68,55.69,50.89,88.89,68.47,29.11,15.42,59.87,24.9,92.86,27.16,11.09,.75,15.3-1.13,13.94-14.48-4.09-40.34,11.9-72.41,47.63-91.75,34.78-18.84,69.7-15.95,100.92,9.13,11.7,9.41,23.4,7.14,35.3,4.43,11.14-2.53,21.78-7.28,35.01-11.87-9,19.43-23.42,31.78-35.61,50.36,15.97-4.7,28.67-8.44,44.04-12.96Z"/></g></svg>