<?xml version="1.0" encoding="UTF-8"?><svg id="Layer_2" xmlns="http://www.w3.org/2000/svg" viewBox="0 0 65.49 67.69"><g id="_1"><g><path d="M20,33.94c0,7.03,5.72,12.75,12.75,12.75s12.75-5.72,12.75-12.75-5.72-12.75-12.75-12.75-12.75,5.72-12.75,12.75Zm12.75-11.25c6.2,0,11.25,5.04,11.25,11.25s-5.05,11.25-11.25,11.25-11.25-5.05-11.25-11.25,5.05-11.25,11.25-11.25Z"/><path d="M32.75,39.69c3.17,0,5.75-2.58,5.75-5.75s-2.58-5.75-5.75-5.75-5.75,2.58-5.75,5.75,2.58,5.75,5.75,5.75Zm0-10c2.34,0,4.25,1.9,4.25,4.25s-1.91,4.25-4.25,4.25-4.25-1.91-4.25-4.25,1.91-4.25,4.25-4.25Z"/><path d="M65.47,11.09c-.02-.1-.06-.19-.13-.27l-.04-.05L58.34,1.49c-.28-.38-.91-.38-1.2,0l-6.94,9.26-.05,.07c-.11,.13-.16,.29-.16,.45v2.24c-4.66-3.94-10.68-6.32-17.25-6.32s-13.07,2.58-17.81,6.8c-.4-1.64-1.06-3.37-1.95-5.18-1.88-3.82-4.23-6.77-4.64-7.27-.01-.01-.01-.02-.01-.02-.03-.03-.04-.05-.05-.06-.02-.03-.05-.06-.08-.08-.05-.05-.11-.09-.18-.12-.15-.07-.31-.09-.48-.05h-.03s-.08,.02-.11,.04c-.01,0-.02,.01-.03,.02-.03,.01-.07,.03-.1,.05-.02,.02-.05,.04-.07,.06-.02,.02-.05,.04-.07,.07-.01,.02-.03,.03-.04,.05C6.59,2.11,1.75,8.11,.39,14.41c-.59,2.76-1.01,7.76,2.6,10.97-.1,.89-.37,3.28-.61,6.46v.07c-.76,10.17-1.15,28.12,4.77,34.53,.14,.16,.34,.25,.55,.25s.41-.09,.55-.25c2.74-2.97,4.13-8.44,4.75-14.46,4.9,5.35,11.93,8.71,19.74,8.71,6.57,0,12.59-2.38,17.25-6.32v9.57c0,1.51,1.24,2.75,2.75,2.75h10c1.52,0,2.75-1.24,2.75-2.75V11.27c0-.06-.01-.12-.02-.18Zm-6.98,30.08V14.46l5.5-2.1V58.52h-5.5v-17.35Zm-.75-37.98l5.81,7.73-5.8,2.22h-.01l-5.8-2.22,5.8-7.73Zm-25,5.5c6.66,0,12.73,2.59,17.25,6.83v4.86c-4.66-2.61-10.68-4.19-17.25-4.19s-12.82,1.64-17.52,4.34c.17-.78,.26-1.61,.26-2.49,0-.74-.06-1.52-.2-2.32,4.54-4.35,10.69-7.03,17.46-7.03Zm17.25,37.11c-4.52,2.72-10.59,4.39-17.25,4.39-7.74,0-14.68-2.25-19.31-5.8,.07-4.56-.14-8.99-.41-12.49v-.06c-.23-3.17-.51-5.55-.62-6.45,.86-.76,1.54-1.64,2.04-2.63,4.6-3.12,11.1-5.07,18.3-5.07,6.66,0,12.73,1.67,17.25,4.39v23.72ZM7.65,31.14H3.94c.19-2.46,.4-4.35,.51-5.29,.41,.01,.94,.01,1.59,.01h2.78s.12-.01,.12-.01h.44c.53-.01,1.04-.01,1.48-.01h.09c.11,.94,.32,2.83,.51,5.3h-3.81Zm-.36-18.97c.01-.33,.02-.67,.05-1.02,.05-1.09,.14-2.22,.26-3.4,.04-.34,.07-.68,.12-1.03,.11-.97,.25-1.96,.42-2.97,.93,1.26,2.32,3.33,3.5,5.72,.75,1.53,1.6,3.56,2.05,5.71,.13,.62,.23,1.26,.27,1.9,.14,1.62-.03,3.24-.7,4.7-.42,.93-1.05,1.8-1.93,2.56h-3.3c-.03-.14-.05-.29-.07-.44-.07-.41-.14-.88-.21-1.39-.04-.29-.08-.6-.12-.93-.02-.21-.05-.42-.07-.63-.04-.38-.07-.77-.11-1.18-.04-.54-.08-1.11-.12-1.71-.01-.26-.03-.53-.04-.8-.06-1.54-.07-3.24,0-5.09ZM1.86,14.73c.8-3.74,2.99-7.47,4.59-9.83-.07,.49-.14,.97-.19,1.44-.05,.41-.1,.81-.14,1.21-.14,1.29-.23,2.53-.29,3.72-.03,.79-.06,1.56-.07,2.3-.06,3.43,.15,6.32,.42,8.5,.1,.88,.22,1.64,.33,2.27h-2.43c-3.15-2.7-2.75-7.16-2.22-9.61Zm5.84,50.04c-4.84-6.4-4.56-22.45-3.88-32.13h7.75c.22,3.04,.39,6.7,.38,10.5,0,.64-.01,1.29-.02,1.94-.02,1-.06,2-.1,2.99-.05,.78-.1,1.56-.16,2.33-.47,5.85-1.61,11.26-3.97,14.37Zm25.04-5.58c-7.88,0-14.92-3.63-19.55-9.3,.09-1.23,.15-2.48,.2-3.72,4.87,3.4,11.75,5.52,19.35,5.52,6.57,0,12.59-1.58,17.25-4.2v4.87c-4.52,4.24-10.59,6.83-17.25,6.83Zm18.75-8.35V12.36l5.5,2.1V58.52h-5.5v-7.68Zm12.5,13.1c0,.69-.56,1.25-1.25,1.25h-10c-.68,0-1.25-.56-1.25-1.25v-3.92h12.5v3.92Z"/><circle cx="24.74" cy="63.94" r=".75"/><circle cx="27.74" cy="63.94" r=".75"/><circle cx="31.74" cy="63.94" r=".75"/><circle cx="37.74" cy="63.94" r=".75"/><circle cx="38.5" cy="3.94" r=".75"/><circle cx="35.5" cy="3.94" r=".75"/><circle cx="31.49" cy="3.94" r=".75"/><circle cx="25.49" cy="3.94" r=".75"/><path d="M41.99,4.5h1.38c.41,0,.75-.34,.75-.75s-.34-.75-.75-.75h-1.38c-.41,0-.75,.34-.75,.75s.34,.75,.75,.75Z"/><path d="M46.61,4.5h1.38c.41,0,.75-.34,.75-.75s-.34-.75-.75-.75h-1.38c-.41,0-.75,.34-.75,.75s.34,.75,.75,.75Z"/><path d="M44.99,7.5c.41,0,.75-.34,.75-.75v-1.38c0-.41-.34-.75-.75-.75s-.75,.34-.75,.75v1.38c0,.41,.34,.75,.75,.75Z"/><path d="M44.99,2.88c.41,0,.75-.34,.75-.75V.75c0-.41-.34-.75-.75-.75s-.75,.34-.75,.75v1.38c0,.41,.34,.75,.75,.75Z"/><path d="M16.38,63.19h-1.38c-.41,0-.75,.34-.75,.75s.34,.75,.75,.75h1.38c.41,0,.75-.34,.75-.75s-.34-.75-.75-.75Z"/><path d="M20.99,63.19h-1.38c-.41,0-.75,.34-.75,.75s.34,.75,.75,.75h1.38c.41,0,.75-.34,.75-.75s-.34-.75-.75-.75Z"/><path d="M17.99,64.8c-.41,0-.75,.34-.75,.75v1.38c0,.41,.34,.75,.75,.75s.75-.34,.75-.75v-1.38c0-.41-.34-.75-.75-.75Z"/><path d="M17.99,60.19c-.41,0-.75,.34-.75,.75v1.38c0,.41,.34,.75,.75,.75s.75-.34,.75-.75v-1.38c0-.41-.34-.75-.75-.75Z"/></g></g></svg>